<?xml version="1.0" standalone="no"?>
<!DOCTYPE svg PUBLIC "-//W3C//DTD SVG 1.1//EN" "http://www.w3.org/Graphics/SVG/1.1/DTD/svg11.dtd" >
<!--
2013-9-30: Created.
-->
<svg>
<metadata>
Created by iconfont
</metadata>
<defs>

<font id="iconfont" horiz-adv-x="1024" >
  <font-face
    font-family="iconfont"
    font-weight="500"
    font-stretch="normal"
    units-per-em="1024"
    ascent="896"
    descent="-128"
  />
    <missing-glyph />
    
    <glyph glyph-name="password" unicode="&#59660;" d="M755.640508-65.082018l-483.307518 0c-57.20998 0-103.564727 46.388517-103.564727 103.564727L168.768263 383.703241c0 52.457746 39.072901 95.338369 89.642646 102.183264l-0.270153 113.037473c0 0.944512 0.506537 1.753947 0.572028 2.697435C259.690042 729.259418 365.482507 832.488501 496.051261 832.488501c131.176598 0 237.507322-104.140849 237.507322-232.618988 0-0.270153-0.066515-0.471744-0.066515-0.674359l-2.731204 0c0-0.101307 0.066515-0.202615 0.066515-0.270153l0.37146-1.550309c0-21.441335-17.801435-38.836517-39.714514-38.836517s-39.71349 17.396205-39.71349 38.836517l-0.337691 1.550309c0 3.979638 1.178849 7.585769 2.292206 11.192923-6.303566 80.102363-73.864288 143.413294-157.269883 143.413294-87.215364 0-157.911496-69.043493-158.449755-154.337087l-0.539282 0c0-0.101307 0.067538-0.202615 0.067538-0.270153l0.270153-111.656009 417.836387 0c57.176211 0 103.566774-46.320978 103.566774-103.56575l0-345.220532C859.207281-18.693502 812.816718-65.082018 755.640508-65.082018zM790.161742 314.658725c0 57.20998-46.388517 103.566774-103.564727 103.566774L341.376483 418.225499c-4.584412 0-8.933463-0.741897-13.349029-1.349741-7.281847-8.325619-17.732873-13.888312-29.835516-13.888312-2.663666 0-5.02341 0.976234-7.550976 1.482771-31.387871-17.800411-52.828182-51.108005-52.828182-89.810469l0-207.132524c0-57.176211 46.354747-103.564727 103.56575-103.564727l345.220532 0c57.176211 0 103.564727 46.388517 103.564727 103.564727L790.163789 314.658725z"  horiz-adv-x="1024" />

    
    <glyph glyph-name="shanchu" unicode="&#58890;" d="M512 896C229.233778 896 0 666.766222 0 384 0 101.233778 229.233778-128 512-128 794.766222-128 1024 101.233778 1024 384 1024 666.766222 794.766222 896 512 896L512 896ZM713.130667 223.089778 672.910222 182.869333 512 343.779556 351.089778 182.869333 310.869333 223.089778 471.779556 384 310.869333 544.910222 351.089778 585.130667 512 424.220444 672.910222 585.130667 713.130667 544.910222 552.220444 384 713.130667 223.089778 713.130667 223.089778Z"  horiz-adv-x="1024" />

    
    <glyph glyph-name="eye" unicode="&#59039;" d="M512.014222-10.666667C344.647111-10.666667 35.555556 115.441778 35.555556 295.111111c0 179.683556 309.091556 305.777778 476.458667 305.777778 167.338667 0 476.444444-126.094222 476.444444-305.777778C988.458667 115.441778 679.352889-10.666667 512.014222-10.666667zM512.014222 544C353.934222 544 92.444444 427.676444 92.444444 295.111111c0-132.551111 261.504-248.888889 419.569778-248.888889 158.051556 0 419.555556 116.337778 419.555556 248.888889C931.569778 427.676444 670.065778 544 512.014222 544zM512.014222 143.402667c-82.360889 0-149.347556 66.972444-149.347556 149.333333 0 82.346667 67.000889 149.333333 149.347556 149.333333 82.332444 0 149.333333-66.986667 149.333333-149.333333C661.347556 210.375111 594.346667 143.402667 512.014222 143.402667zM512.014222 413.624889c-66.673778 0-120.903111-54.243556-120.903111-120.888889 0-66.673778 54.229333-120.888889 120.903111-120.888889 66.645333 0 120.888889 54.229333 120.888889 120.888889C632.903111 359.381333 578.659556 413.624889 512.014222 413.624889zM456.149333 329.827556c-3.441778 0-6.883556 1.251556-9.628444 3.754667-5.774222 5.333333-6.158222 14.336-0.839111 20.110222 2.844444 3.086222 5.902222 6.001778 9.159111 8.661333 6.087111 5.006222 15.047111 4.138667 20.024889-1.948444 5.006222-6.058667 4.124444-15.032889-1.934222-20.024889-2.247111-1.834667-4.366222-3.84-6.314667-5.944889C463.815111 331.377778 459.975111 329.827556 456.149333 329.827556zM512.014222 202.666667c-49.692444 0-90.097778 40.419556-90.097778 90.083556 0 7.864889 6.371556 14.222222 14.222222 14.222222 7.864889 0 14.222222-6.357333 14.222222-14.222222 0-34.005333 27.662222-61.639111 61.653333-61.639111 7.864889 0 14.222222-6.357333 14.222222-14.222222S519.879111 202.666667 512.014222 202.666667zM510.236444 636.444444c-15.715556 0-28.444444 12.743111-28.444444 28.444444l0 85.333333c0 15.701333 12.728889 28.444444 28.444444 28.444444 15.701333 0 28.444444-12.743111 28.444444-28.444444l0-85.333333C538.680889 649.187556 525.923556 636.444444 510.236444 636.444444zM346.353778 626.773333c-10.410667 0-20.437333 5.717333-25.429333 15.658667l-26.339556 52.337778c-7.068444 14.037333-1.422222 31.132444 12.629333 38.200889 14.008889 7.082667 31.118222 1.436444 38.200889-12.615111l26.339556-52.337778c7.054222-14.037333 1.408-31.132444-12.629333-38.200889C355.015111 627.754667 350.648889 626.773333 346.353778 626.773333zM180.394667 560.824889c-7.793778 0-15.559111 3.185778-21.162667 9.429333l-36.977778 41.159111c-10.496 11.690667-9.543111 29.681778 2.147556 40.163556 11.662222 10.524444 29.653333 9.557333 40.163556-2.133333l36.977778-41.159111c10.496-11.690667 9.528889-29.681778-2.147556-40.163556C193.962667 563.228444 187.164444 560.824889 180.394667 560.824889zM662.485333 626.773333c-4.309333 0-8.661333 0.967111-12.771556 3.043556-14.023111 7.054222-19.669333 24.149333-12.615111 38.200889l26.339556 52.337778c7.025778 14.008889 24.106667 19.712 38.200889 12.615111 14.023111-7.054222 19.697778-24.149333 12.615111-38.200889l-26.339556-52.337778C682.936889 632.504889 672.896 626.773333 662.485333 626.773333zM828.430222 560.824889c-6.755556 0-13.553778 2.403556-19.000889 7.296-11.662222 10.481778-12.643556 28.472889-2.133333 40.163556l36.977778 41.159111c10.496 11.662222 28.472889 12.657778 40.163556 2.133333 11.690667-10.481778 12.643556-28.472889 2.133333-40.163556l-36.977778-41.159111C843.989333 563.996444 836.238222 560.824889 828.430222 560.824889z"  horiz-adv-x="1024" />

    
    <glyph glyph-name="3702mima" unicode="&#58988;" d="M893.532041 14.644791l-0.284479 392.855436c-1.805112 41.266869-35.472909 74.250074-77.136821 74.419943l-50.869574-0.029676 0 35.523051 0.191358 0 0.170892 81.20344c0 2.183735-0.285502 4.273327-0.647753 6.363941-2.829442 123.525338-101.722776 223.293599-224.985124 227.214908l0 1.137916C414.498874 831.871447 313.084113 731.117742 310.218856 606.004233c-0.361227-2.090615-0.64673-4.180206-0.64673-6.363941l0.170892-81.20344 0.191358 0 0-36.477796-0.094144 0 0-0.323365-42.272779-0.019443c-2.596128-0.115634-5.158487-0.358157-7.682983-0.720408l-0.819668 0c-41.663912-0.169869-75.331709-33.152051-77.136821-74.419943l-0.284479-392.855436c0.209778-42.786479 34.921347-77.441766 77.763085-77.441766l38.911218 0 0-0.037862 466.923362-0.265036 0 0.302899 38.910195 0c4.331655 0 8.575306 0.370437 12.71458 1.050935C859.199095-62.181969 893.32431-27.774321 893.532041 14.644791zM387.811048 599.905328c0.514723 82.71998 65.588811 150.08832 147.393955 154.210197l0-0.847298c84.028788-1.687432 151.633512-70.065775 152.158469-154.386206l0.454348 0c0-0.095167-0.036839-0.170892-0.036839-0.265036l-0.26299-116.770494-299.860439-0.172939-0.265036 117.966739c0 0.094144-0.037862 0.169869-0.037862 0.265036L387.811048 599.905328z"  horiz-adv-x="1024" />

    
    <glyph glyph-name="tablecharts" unicode="&#59023;" d="M336.866261 348.591559 126.705773 348.591559l0-212.449623L336.866261 136.141936 336.866261 348.591559zM617.080244 561.041182 406.919756 561.041182l0-424.899246 210.160487 0L617.080244 561.041182zM687.133739 773.490805l0-637.347846 210.160487 0L897.294227 773.490805 687.133739 773.490805zM126.705773-5.490805l770.589476 0 0 70.816882L126.705773 65.326077 126.705773-5.490805z"  horiz-adv-x="1024" />

    
    <glyph glyph-name="itabmycenter" unicode="&#58981;" d="M1124.825336 582.174502M512.010233 876.270656c-181.520193 0-326.121546-144.601352-326.121546-326.121546s144.601352-323.045487 326.121546-323.045487 323.045487 144.601352 323.045487 323.045487S690.454368 876.270656 512.010233 876.270656L512.010233 876.270656zM512.010233 288.636049c-144.601352 0-261.513062 116.91171-261.513062 261.513062S367.408881 814.738231 512.010233 814.738231s261.513062-116.91171 261.513062-261.513062S656.611585 288.636049 512.010233 288.636049L512.010233 288.636049zM81.283258-108.248144c21.536502 132.295072 221.517139 233.82342 427.649893 233.82342s412.267555-101.528348 433.804057-233.82342l61.532425 0C982.733131 57.888687 767.370155 187.106678 508.934175 187.106678S41.287335 57.888687 19.750833-108.248144L81.283258-108.248144 81.283258-108.248144z"  horiz-adv-x="1024" />

    
    <glyph glyph-name="money" unicode="&#58969;" d="M512.268258 829.79967c-246.207561 0-445.79967-199.590062-445.79967-445.79967 0-246.207561 199.59211-445.79967 445.79967-445.79967s445.79967 199.59211 445.79967 445.79967c-0.001024 246.209609-199.593134 445.79967-445.79967 445.79967zM660.867807 421.149631v-55.724959h-111.449918v-55.724958h111.449918v-55.724959h-111.449918v-92.87459h-74.299262v92.87459h-111.449918V309.699714h111.449918v55.724958h-111.449918V421.149631h81.053834l-81.053834 148.600573h74.299263l74.300286-136.21668 74.300286 136.21668h74.299263L579.813973 421.149631h81.053834z"  horiz-adv-x="1024" />

    
    <glyph glyph-name="cuowuguanbiquxiao-fangkuang" unicode="&#59624;" d="M864 768H160c-17.6 0-32-14.4-32-32v-704c0-17.6 14.4-32 32-32h704c17.6 0 32 14.4 32 32V736c0 17.6-14.4 32-32 32zM750.4 190.4l-45.6-45.6L512 338.4 318.4 145.6l-45.6 45.6L467.2 384 273.6 577.6l45.6 45.6L512 428.8l193.6 193.6 45.6-45.6L557.6 384l192.8-193.6z"  horiz-adv-x="1024" />

    
    <glyph glyph-name="iconjifen" unicode="&#58880;" d="M512 839.68c-291.84 0-512-94.08-512-219.52 0-124.8 220.16-219.52 512-219.52 291.84 0 512 94.08 512 219.52C1024 744.96 803.84 839.68 512 839.68zM512 460.16c-262.4 0-445.44 84.48-445.44 160 0 75.52 183.04 160 445.44 160 262.4 0 445.44-84.48 445.44-160C957.44 544.64 774.4 460.16 512 460.16zM512 168.32000000000005c291.2 0 510.72 93.44 510.72 217.6 0 32.64-16 63.36-43.52 90.88 0 0-0.64 0.64-0.64 0.64 0 0-0.64 0.64-0.64 0.64l0 0c-4.48 3.84-10.24 5.76-16.64 7.04-15.36 2.56-32.64-8.32-32.64-29.44 0-7.68 3.2-14.08 8.32-18.56l0 0c16.64-16.64 26.24-34.56 26.24-51.2 0-78.08-180.48-156.8-450.56-156.8-270.08 0-450.56 78.72-450.56 156.8 0 19.2 5.76 32 26.88 51.2 0 0 0.64 0.64 0.64 0.64 0 0 0 0 0.64 0.64l0 0c3.84 4.48 7.04 10.24 7.04 16.64C95.36 477.44 81.92 485.76 63.36 485.12c-7.04 0-13.44-2.56-17.92-7.68l0 0C17.28 450.56 1.28 419.2 1.28 386.56 1.28 262.4 220.8 168.32000000000005 512 168.32000000000005L512 168.32000000000005 512 168.32000000000005zM512-71.67999999999995c291.2 0 510.72 93.44 510.72 217.6 0 32.64-16 63.36-43.52 90.88 0 0-0.64 0.64-0.64 0.64 0 0-0.64 0.64-0.64 0.64l0 0c-4.48 3.84-10.24 5.76-16.64 7.04-15.36 2.56-32.64-8.32-32.64-29.44 0-7.68 3.2-14.08 8.32-18.56l0 0c16.64-16.64 26.24-34.56 26.24-51.2 0-78.08-180.48-156.8-450.56-156.8-270.08 0-450.56 78.72-450.56 156.8 0 19.2 5.76 32 26.88 51.2 0 0 0.64 0.64 0.64 0.64 0 0 0 0 0.64 0.64l0 0c3.84 4.48 7.04 10.24 7.04 16.64-0.64 22.4-14.72 30.72-32.64 30.08-7.04 0-13.44-2.56-17.92-7.68l0 0c-28.16-27.52-44.16-58.24-44.16-91.52C1.28 22.399999999999977 220.8-71.67999999999995 512-71.67999999999995L512-71.67999999999995 512-71.67999999999995z"  horiz-adv-x="1024" />

    
    <glyph glyph-name="icon-icon-shezhi" unicode="&#58891;" d="M514.133333 533.333333c-83.2 0-149.333333-66.133333-149.333333-149.333333s66.133333-149.333333 149.333333-149.333333 149.333333 66.133333 149.333334 149.333333-68.266667 149.333333-149.333334 149.333333z m0-256c-59.733333 0-106.666667 46.933333-106.666666 106.666667s46.933333 106.666667 106.666666 106.666667 106.666667-46.933333 106.666667-106.666667-49.066667-106.666667-106.666667-106.666667zM868.266667 480h-23.466667c-6.4 23.466667-17.066667 49.066667-29.866667 70.4l17.066667 17.066667c17.066667 17.066667 27.733333 42.666667 27.733333 68.266666S851.2 684.8 832 704c-38.4 38.4-98.133333 38.4-136.533333 0l-17.066667-17.066667c-21.333333 12.8-46.933333 21.333333-70.4 29.866667v21.333333c0 53.333333-42.666667 96-96 96s-96-42.666667-96-96v-23.466666c-23.466667-6.4-49.066667-17.066667-70.4-29.866667l-14.933333 19.2c-17.066667 17.066667-42.666667 27.733333-68.266667 27.733333-25.6 0-49.066667-10.666667-68.266667-27.733333-17.066667-17.066667-27.733333-42.666667-27.733333-68.266667s10.666667-49.066667 27.733333-68.266666l17.066667-17.066667c-12.8-23.466667-21.333333-46.933333-29.866667-70.4H157.866667c-53.333333 0-96-42.666667-96-96s42.666667-96 96-96h23.466666c6.4-23.466667 17.066667-49.066667 29.866667-70.4l-17.066667-17.066667c-17.066667-17.066667-27.733333-42.666667-27.733333-68.266666 0-25.6 10.666667-49.066667 27.733333-68.266667 17.066667-17.066667 42.666667-27.733333 68.266667-27.733333 25.6 0 49.066667 10.666667 68.266667 27.733333l17.066666 17.066667c21.333333-12.8 46.933333-21.333333 70.4-29.866667v-23.466667c0-53.333333 42.666667-96 96-96s96 42.666667 96 96v23.466667c23.466667 6.4 49.066667 17.066667 70.4 29.866667l17.066667-17.066667c38.4-38.4 98.133333-38.4 136.533333 0 17.066667 17.066667 27.733333 42.666667 27.733334 68.266667 0 25.6-10.666667 49.066667-27.733334 68.266666l-17.066666 17.066667c12.8 21.333333 21.333333 46.933333 29.866666 70.4h23.466667c53.333333 0 96 42.666667 96 96s-44.8 96-98.133333 96z m0-149.333333h-55.466667l-4.266667-17.066667c-6.4-32-19.2-61.866667-36.266666-89.6l-8.533334-14.933333 40.533334-40.533334c10.666667-10.666667 14.933333-23.466667 14.933333-38.4s-6.4-27.733333-14.933333-38.4c-21.333333-21.333333-55.466667-21.333333-76.8 0l-40.533334 40.533334-14.933333-8.533334c-27.733333-17.066667-57.6-29.866667-89.6-36.266666l-14.933333-2.133334v-55.466666c0-29.866667-23.466667-53.333333-53.333334-53.333334s-53.333333 23.466667-53.333333 53.333334V85.333333l-17.066667 4.266667c-32 6.4-61.866667 19.2-89.6 36.266667l-14.933333 8.533333-40.533333-40.533333c-19.2-19.2-55.466667-19.2-76.8 0-10.666667 10.666667-14.933333 23.466667-14.933334 38.4s6.4 27.733333 14.933334 38.4l40.533333 40.533333-6.4 12.8c-17.066667 27.733333-29.866667 57.6-36.266667 89.6l-4.266666 17.066667H157.866667c-29.866667 0-53.333333 23.466667-53.333334 53.333333s23.466667 53.333333 53.333334 53.333333H213.333333l4.266667 17.066667c6.4 32 19.2 61.866667 36.266667 89.6l8.533333 14.933333-38.4 38.4c-10.666667 10.666667-14.933333 23.466667-14.933333 38.4s6.4 27.733333 14.933333 38.4c19.2 19.2 55.466667 19.2 76.8 0l40.533333-40.533333 14.933334 8.533333c27.733333 17.066667 57.6 29.866667 89.6 36.266667l17.066666 4.266667V738.133333c0 29.866667 23.466667 53.333333 53.333334 53.333334s53.333333-23.466667 53.333333-53.333334V682.666667l17.066667-4.266667c32-6.4 61.866667-19.2 89.6-36.266667l14.933333-8.533333 40.533333 40.533333c21.333333 21.333333 55.466667 21.333333 76.8 0 10.666667-10.666667 14.933333-23.466667 14.933334-38.4s-6.4-27.733333-14.933334-38.4L768 556.8l8.533333-14.933333c17.066667-27.733333 29.866667-57.6 36.266667-89.6l4.266667-17.066667h55.466666c29.866667 0 53.333333-23.466667 53.333334-53.333333s-27.733333-51.2-57.6-51.2z"  horiz-adv-x="1024" />

    
    <glyph glyph-name="jinyong1" unicode="&#58962;" d="M512 892.58780445c-280.88433778 0-508.58666667-227.70460445-508.58666667-508.58894223s227.70232889-508.58666667 508.58666667-508.58666667 508.58666667 227.70232889 508.58666667 508.58666667S792.88433778 892.58780445 512 892.58780445z m197.78332445-565.09781334H314.21667555v113.02115556h395.56778667v-113.02115556z"  horiz-adv-x="1024" />

    
    <glyph glyph-name="user" unicode="&#62172;" d="M691.2 288c-57.4 0-85-32-179.2-32-94.2 0-121.6 32-179.2 32C184.4 288 64 167.6 64 19.2V-32c0-53 43-96 96-96h704c53 0 96 43 96 96v51.2c0 148.4-120.4 268.8-268.8 268.8zM864-32H160v51.2c0 95.2 77.6 172.8 172.8 172.8 29.2 0 76.6-32 179.2-32 103.4 0 149.8 32 179.2 32 95.2 0 172.8-77.6 172.8-172.8V-32zM512 320c159 0 288 129 288 288S671 896 512 896 224 767 224 608s129-288 288-288z m0 480c105.8 0 192-86.2 192-192s-86.2-192-192-192-192 86.2-192 192 86.2 192 192 192z"  horiz-adv-x="1024" />

    
    <glyph glyph-name="qiyong" unicode="&#58903;" d="M512 896A512 512 0 0 1 0 384 512 512 0 0 1 512-128 512 512 0 0 1 1024 384 512 512 0 0 1 512 896z m303.377067-318.941867l-346.658134-461.2096a62.532267 62.532267 0 0 0-93.730133-7.031466L182.0672 298.325333A62.464 62.464 0 1 0 269.653333 387.413333l141.994667-139.537066 303.786667 404.2752a62.532267 62.532267 0 0 0 99.9424-75.1616z"  horiz-adv-x="1024" />

    
    <glyph glyph-name="icon_chehuisekuai_" unicode="&#58889;" d="M64 548.437333L320 768v-448l-256 228.437333zM265.472 0v112h377.813333a200.021333 200.021333 0 0 1 0 400H240V624h403.285333a311.978667 311.978667 0 1 0 0-624H265.472z"  horiz-adv-x="1024" />

    
    <glyph glyph-name="RectangleCopy" unicode="&#59064;" d="M382.738347 292.266667a21.333333 21.333333 0 0 1 0-42.666667h131.114666v-93.824a21.333333 21.333333 0 0 1 42.666667 0V249.6h124.885333a21.333333 21.333333 0 0 1 0 42.666667h-124.928v59.989333h124.885334a21.333333 21.333333 0 0 1 0 42.666667h-124.885334v23.936l103.765334 97.877333a21.333333 21.333333 0 0 1-29.269334 31.061333l-98.133333-92.586666-98.133333 92.586666a21.333333 21.333333 0 1 1-29.312-31.061333l108.416-102.272v-19.541333H382.69568a21.333333 21.333333 0 1 1 0-42.666667h131.114667v-59.989333H382.69568zM827.026347 565.888a360.874667 360.874667 0 0 1-592.554667 9.216V623.189333a20.138667 20.138667 0 0 1-40.32 0v-118.784c0-3.626667 1.194667-6.826667 2.858667-9.770666a20.053333 20.053333 0 0 1 10.026666-10.325334c10.24-4.437333 22.058667 0 26.624 10.24A321.109333 321.109333 0 0 0 527.20768 685.056a321.109333 321.109333 0 0 0 321.152-321.152c0-177.152-144.085333-321.194667-321.152-321.194667A320.597333 320.597333 0 0 0 211.005013 307.157333a20.138667 20.138667 0 1 1-39.68-7.082666A360.874667 360.874667 0 0 1 527.165013 2.389333c199.381333 0 361.514667 162.133333 361.514667 361.514667 0 72.32-21.333333 142.165333-61.653333 201.941333"  horiz-adv-x="1024" />

    
    <glyph glyph-name="username" unicode="&#59199;" d="M492.642454 351.507762c138.576752 0 250.922119 112.345367 250.922119 250.924119 0 138.576752-112.344367 250.922119-250.922119 250.922119-138.578752 0-250.924119-112.345367-250.924119-250.923119 0-138.577752 112.345367-250.923119 250.924119-250.923119m329.666273-152.226433C763.454107 261.354874 743.657571 282.663375 635.847097 288.514238H349.42681c-107.810473-5.851863-127.607009-27.159363-186.461629-89.231909-62.510535-64.169496-112.295368-145.404592-88.694922-246.144231 26.184386-65.876456 96.935728-81.138098 163.83616-81.138098h509.062069c66.899432 0 137.699773 15.261642 163.885159 81.138098 23.599447 100.739639-26.185386 181.974735-88.74492 246.144231"  horiz-adv-x="1024" />

    
    <glyph glyph-name="delete" unicode="&#58888;" d="M713.4 119.70000000000005c-11.2 0-20.2 9.4-20.2 21V538.9c0 11.5 9 20.9 20.2 20.9 11.1 0 20.2-9.4 20.2-20.9v-398.2c0-11.6-9.1-21-20.2-21m-202.6 0c-11.1 0-20.2 9.4-20.2 21V538.9c0 11.5 9.1 20.9 20.2 20.9 11.2 0 20.2-9.4 20.2-20.9v-398.2c0-11.6-9.1-21-20.2-21m-202.6 0c-11.2 0-20.2 9.4-20.2 21V538.9c0 11.5 9 20.9 20.2 20.9s20.2-9.4 20.2-20.9v-398.2c0-11.6-9-21-20.2-21M645.9 853.4c12.8 0 27.1-17.2 27.1-41.9v-62.8H348.6V811.4c0 24.7 14.3 41.9 27.1 41.9h270.2m0 41.9H375.7c-37.3 0-67.5-37.5-67.5-83.9v-104.8h405.2V811.3c0 46.4-30.3 83.9-67.5 83.9M982.1 706.6H39.4c-11.1 0-20.2 9.4-20.2 20.9 0 11.5 9.1 20.9 20.2 20.9h942.7c11.2 0 20.2-9.4 20.2-20.9 0.1-11.5-9-20.9-20.2-20.9M826.4-117.70000000000005H195.1c-54.6 0-99.2 51-99.2 113.6V736.5h40.5v-740.7c0-39.5 26.3-71.6 58.6-71.6h631.3c32.4 0 58.7 32.1 58.7 71.6V736.5h40.5v-740.7c0.1-62.6-44.4-113.5-99.1-113.5"  horiz-adv-x="1024" />

    
    <glyph glyph-name="icon_shezhi" unicode="&#59026;" d="M482.88 784l-17.28-90.688-20.64-4.512a309.696 309.696 0 0 1-99.776-41.088l-18.688-11.84-73.28 55.04-44.64-44.64 51.904-76.416-11.392-17.76a310.016 310.016 0 0 1-41.568-99.584l-4.8-21.6L112 418.016v-63.104l90.688-17.312 4.512-20.64a309.984 309.984 0 0 1 41.088-99.776l11.84-18.688-55.04-73.28 44.64-44.64 76.416 51.904 17.76-11.392a310.016 310.016 0 0 1 99.584-41.568l21.6-4.8L477.984-16h63.104l17.312 90.688 20.64 4.512a309.984 309.984 0 0 1 99.776 41.088l18.688 11.84 73.28-55.04 44.64 44.64-51.904 76.416 11.392 17.76a310.016 310.016 0 0 1 41.568 99.584l4.8 21.6L912 349.984V413.12l-90.688 17.312-4.512 20.64a309.984 309.984 0 0 1-41.088 99.776l-11.84 18.688 55.04 73.28-44.64 44.64-76.416-51.904-17.76 11.392a310.144 310.144 0 0 1-99.584 41.568l-21.6 4.8-12.896 90.72H482.88z m-72.32-37.856L429.984 848h171.584l14.624-102.624a374.119 374.119 0 0 0 80.128-33.568l85.792 58.304 121.344-121.344-62.272-82.88c14.08-25.408 25.152-52.352 32.96-80.416l101.888-19.424v-171.584L873.408 279.84a373.92 373.92 0 0 0-33.568-80.128l58.304-85.792L776.8-7.424l-82.88 62.272c-25.408-14.08-52.352-25.152-80.416-32.96L594.08-80H422.496l-14.624 102.624a373.92 373.92 0 0 0-80.128 33.568l-85.824-58.304-121.344 121.344 62.272 82.88a373.824 373.824 0 0 0-32.96 80.416L48 301.952V473.536l102.624 14.624a374.801 374.801 0 0 0 33.568 80.128l-58.304 85.792 121.344 121.344 82.88-62.272a373.856 373.856 0 0 0 80.416 32.96zM512 192a192 192 0 1 0 0 384 192 192 0 0 0 0-384z m0 64a128 128 0 1 1 0 256 128 128 0 0 1 0-256z"  horiz-adv-x="1024" />

    
    <glyph glyph-name="money1" unicode="&#58893;" d="M69.910434 73.375652c-13.969431 4.104097-21.964859 18.75827-17.860762 32.727702s18.75827 21.964859 32.727702 17.860762l187.022486-55.306768c13.969431-4.104097 21.964569-18.75827 17.860472-32.727702-4.103807-13.969431-18.75827-21.964859-32.727701-17.860762l-187.022197 55.306768zM69.910434 73.375652c-13.969431 4.104097-21.964859 18.75827-17.860762 32.727702s18.75827 21.964859 32.727702 17.860762l187.022486-55.306768c13.969431-4.104097 21.964569-18.75827 17.860472-32.727702-4.103807-13.969431-18.75827-21.964859-32.727701-17.860762l-187.022197 55.306768zM280.162187 64.424372c11.630453-8.72371 13.988879-25.22689 5.265459-36.857343-8.72371-11.630453-25.22689-13.988879-36.857342-5.265169-55.988607 42.117867-101.849768 96.813621-133.32032 159.818873-30.364631 60.793991-47.449217 129.352648-47.449217 201.866785 0 124.924902 50.641002 238.028936 132.511053 319.898987 81.870341 81.870341 194.975826 132.509602 319.90189 132.509602 8.702811 0 17.968742-0.302749 27.768185-0.897508 9.821794-0.5965 19.054924-1.428118 27.688651-2.482952 14.481754-1.76657 24.789166-14.941829 23.022596-29.423582-1.76657-14.482044-14.941829-24.789456-29.423873-23.022886-8.567546 1.047577-16.706947 1.81011-24.385984 2.276281-7.542901 0.458333-15.767641 0.690547-24.669575 0.690547-110.33633 0-210.227661-44.720699-282.529032-117.02207-72.301661-72.301661-117.023811-172.19125-117.023811-282.526419 0-64.112624 15.078254-124.674401 41.875203-178.326932 27.888065-55.833023 68.350244-104.167847 117.626117-141.236214zM280.162187 64.424372c11.630453-8.72371 13.988879-25.22689 5.265459-36.857343-8.72371-11.630453-25.22689-13.988879-36.857342-5.265169-55.988607 42.117867-101.849768 96.813621-133.32032 159.818873-30.364631 60.793991-47.449217 129.352648-47.449217 201.866785 0 124.924902 50.641002 238.028936 132.511053 319.898987 81.870341 81.870341 194.975826 132.509602 319.90189 132.509602 8.702811 0 17.968742-0.302749 27.768185-0.897508 9.821794-0.5965 19.054924-1.428118 27.688651-2.482952 14.481754-1.76657 24.789166-14.941829 23.022596-29.423582-1.76657-14.482044-14.941829-24.789456-29.423873-23.022886-8.567546 1.047577-16.706947 1.81011-24.385984 2.276281-7.542901 0.458333-15.767641 0.690547-24.669575 0.690547-110.33633 0-210.227661-44.720699-282.529032-117.02207-72.301661-72.301661-117.023811-172.19125-117.023811-282.526419 0-64.112624 15.078254-124.674401 41.875203-178.326932 27.888065-55.833023 68.350244-104.167847 117.626117-141.236214zM954.142685 706.580481c13.912539-4.38856 21.630761-19.227053 17.241911-33.139591-4.38885-13.912539-19.227343-21.630761-33.139882-17.241911L739.138086 719.397839c-13.912539 4.38885-21.630761 19.227343-17.241911 33.139592 4.38885 13.912539 19.227343 21.630761 33.139882 17.241911l199.106628-63.198861zM954.142685 706.580481c13.912539-4.38856 21.630761-19.227053 17.241911-33.139591-4.38885-13.912539-19.227343-21.630761-33.139882-17.241911L739.138086 719.397839c-13.912539 4.38885-21.630761 19.227343-17.241911 33.139592 4.38885 13.912539 19.227343 21.630761 33.139882 17.241911l199.106628-63.198861zM733.045654 722.288036c-12.315195 7.754216-16.013207 24.026632-8.258992 36.341827 7.753925 12.315195 24.026632 16.013207 36.341827 8.259282 64.692579-40.789021 118.324211-97.49546 155.377774-164.603648 35.763323-64.770371 56.117486-139.187794 56.117486-218.297979 0-124.929256-50.639261-238.034741-132.50815-319.904792-81.870051-81.871792-194.975536-132.511053-319.901889-132.511053-16.650055 0-33.382546 0.950047-50.129841 2.797312-16.545268 1.825204-33.016808 4.598714-49.346407 8.265087-14.197001 3.193237-23.118384 17.292998-19.925438 31.49029 3.193237 14.197001 17.292998 23.118384 31.49 19.925437 14.05477-3.155792 28.590804-5.583012 43.56253-7.234346 14.270729-1.573252 29.064231-2.38397 44.349156-2.38397 110.33662 0 210.227661 44.720989 282.529321 117.023811 72.299919 72.301661 117.020618 172.192702 117.020618 282.532224 0 70.00303-17.958002 135.758279-49.509538 192.900411-32.744247 59.304627-80.104932 109.397023-137.208457 145.400107zM733.045654 722.288036c-12.315195 7.754216-16.013207 24.026632-8.258992 36.341827 7.753925 12.315195 24.026632 16.013207 36.341827 8.259282 64.692579-40.789021 118.324211-97.49546 155.377774-164.603648 35.763323-64.770371 56.117486-139.187794 56.117486-218.297979 0-124.929256-50.639261-238.034741-132.50815-319.904792-81.870051-81.871792-194.975536-132.511053-319.901889-132.511053-16.650055 0-33.382546 0.950047-50.129841 2.797312-16.545268 1.825204-33.016808 4.598714-49.346407 8.265087-14.197001 3.193237-23.118384 17.292998-19.925438 31.49029 3.193237 14.197001 17.292998 23.118384 31.49 19.925437 14.05477-3.155792 28.590804-5.583012 43.56253-7.234346 14.270729-1.573252 29.064231-2.38397 44.349156-2.38397 110.33662 0 210.227661 44.720989 282.529321 117.023811 72.299919 72.301661 117.020618 172.192702 117.020618 282.532224 0 70.00303-17.958002 135.758279-49.509538 192.900411-32.744247 59.304627-80.104932 109.397023-137.208457 145.400107zM386.410965 384.203478c-14.595539 0-26.42976 11.834221-26.42976 26.429759 0 14.595829 11.834221 26.43005 26.42976 26.43005h250.712771c14.595539 0 26.43005-11.834221 26.43005-26.43005 0-14.595539-11.834511-26.42976-26.43005-26.429759h-250.712771zM386.410965 384.203478c-14.595539 0-26.42976 11.834221-26.42976 26.429759 0 14.595829 11.834221 26.43005 26.42976 26.43005h250.712771c14.595539 0 26.43005-11.834221 26.43005-26.43005 0-14.595539-11.834511-26.42976-26.43005-26.429759h-250.712771zM386.410965 277.600864c-14.595539 0-26.42976 11.834221-26.42976 26.43005s11.834221 26.43005 26.42976 26.43005h250.712771c14.595539 0 26.43005-11.834221 26.43005-26.43005s-11.834511-26.43005-26.43005-26.43005h-250.712771zM386.410965 277.600864c-14.595539 0-26.42976 11.834221-26.42976 26.43005s11.834221 26.43005 26.42976 26.43005h250.712771c14.595539 0 26.43005-11.834221 26.43005-26.43005s-11.834511-26.43005-26.43005-26.43005h-250.712771zM393.389004 545.931442c-10.319313 10.319313-10.319313 27.053255 0 37.372568 10.319313 10.319603 27.053255 10.319603 37.372858 0l96.732637-96.731185c10.319313-10.319313 10.319313-27.053255 0-37.372567s-27.053545-10.319313-37.372859 0l-96.732636 96.731184zM393.389004 545.931442c-10.319313 10.319313-10.319313 27.053255 0 37.372568 10.319313 10.319603 27.053255 10.319603 37.372858 0l96.732637-96.731185c10.319313-10.319313 10.319313-27.053255 0-37.372567s-27.053545-10.319313-37.372859 0l-96.732636 96.731184zM589.813557 583.30401c10.319603 10.319603 27.053545 10.319603 37.372858 0 10.319313-10.319313 10.319313-27.053255 0-37.372568l-96.734087-96.731184c-10.319603-10.319313-27.053545-10.319313-37.372858 0s-10.319313 27.053255 0 37.372567l96.734087 96.731185zM589.813557 583.30401c10.319603 10.319603 27.053545 10.319603 37.372858 0 10.319313-10.319313 10.319313-27.053255 0-37.372568l-96.734087-96.731184c-10.319603-10.319313-27.053545-10.319313-37.372858 0s-10.319313 27.053255 0 37.372567l96.734087 96.731185zM485.338897 467.886542c0 14.595829 11.834221 26.43005 26.43005 26.43005s26.43005-11.834221 26.43005-26.43005v-264.535037c0-14.595829-11.834221-26.43005-26.43005-26.43005s-26.43005 11.834221-26.43005 26.43005v264.535037zM485.338897 467.886542c0 14.595829 11.834221 26.43005 26.43005 26.43005s26.43005-11.834221 26.43005-26.43005v-264.535037c0-14.595829-11.834221-26.43005-26.43005-26.43005s-26.43005 11.834221-26.43005 26.43005v264.535037z"  horiz-adv-x="1024" />

    
    <glyph glyph-name="icon_chuangjianbumen-bigin" unicode="&#59399;" d="M712.224111-118.954667a19.882665 19.882665 0 0 1 15.300266 5.913599c4.036266 4.087466 6.161066 9.727999 5.836799 15.505065V312.430897c2.363733 87.620259-64.204795 161.39092-150.536521 166.826652H424.130269c-86.271993-5.435733-152.729587-79.27466-150.169588-166.826652v-409.9669c-0.324267-5.777066 1.792-11.417599 5.8368-15.505065a19.882665 19.882665 0 0 1 15.300265-5.913599H712.224111zM188.047088-23.680009a19.507198 19.507198 0 0 1 15.189332 5.922133 20.070398 20.070398 0 0 1 5.572267 15.496532V335.897561a17.066665 17.066665 0 0 1-4.0704 17.279999 16.955732 16.955732 0 0 1-14.830932 6.391466h-64.511995C56.556966 358.954626 0.859904 302.677297 0.057771 232.942903v-234.453314a20.445865 20.445865 0 0 1 5.708799-15.359998 19.882665 19.882665 0 0 1 15.052799-6.058666h167.219186v-0.750934z m807.935933 0a19.882665 19.882665 0 0 1 15.300265 5.905066c4.036266 4.096 6.152533 9.727999 5.828267 15.513599V232.942903a128.639989 128.639989 0 0 1-36.394664 90.555726 125.243723 125.243723 0 0 1-88.925859 37.94773h-64.511995c-4.4544 0-12.612266-1.877333-14.839465-6.391466a43.690663 43.690663 0 0 1-4.078933-17.279998v-338.158906a20.070398 20.070398 0 0 1 5.580799-15.496532 19.507198 19.507198 0 0 1 15.189332-5.922133l166.84372-1.877333z m-123.101856 416.682632c60.177062-0.913067 114.94399 35.123197 138.598388 91.204259 23.654398 56.081062 11.519999 121.08799-30.719997 164.548253-42.239996 43.45173-106.197324 56.721062-161.885854 33.604264-55.697062-23.125331-92.074659-78.07146-92.074659-139.059188A149.461321 149.461321 0 0 1 768.88544 437.273553a145.510388 145.510388 0 0 1 103.987191-44.262396z m-724.50554 0c39.133863 0 76.629327 15.906132 104.089591 44.159997a149.094388 149.094388 0 0 1 42.001063 106.137591c0 52.889596-27.844264 101.759992-73.045327 128.204789a144.418121 144.418121 0 0 1-146.090654 0C30.129235 645.060202 2.28497 596.189806 2.28497 543.300211A149.094388 149.094388 0 0 1 44.286034 437.16262a145.134921 145.134921 0 0 1 104.089591-44.151463zM509.514795 512.75088c50.210129 0.093867 98.303992 20.505598 133.606389 56.703995 35.293864 36.18133 54.869329 85.16266 54.374395 136.046922 0 68.061861-35.831464 130.943989-93.994659 164.97492a185.838918 185.838918 0 0 1-187.989317 0c-58.154662-34.03093-93.986126-96.913059-93.986126-164.97492-0.392533-50.858662 19.217065-99.771725 54.485329-135.935988 35.276797-36.18133 83.31946-56.618662 133.503989-56.814929z"  horiz-adv-x="1024" />

    
    <glyph glyph-name="icon_chuanjianhuodong-bigin" unicode="&#59400;" d="M997.981867 513.3056c-8.106667 24.832-28.970667 42.154667-54.468267 45.627733l-245.691733 35.805867c-9.847467 1.152-17.962667 7.509333-22.016 16.170667L565.7088 832.6656c-11.588267 23.099733-34.773333 37.546667-60.270933 37.546667-25.489067 0-49.245867-14.446933-60.2624-37.546667L335.0784 610.909867c-4.053333-8.669867-12.7488-14.4384-22.016-16.170667L67.370667 558.933333c-25.4976-3.464533-46.353067-21.367467-54.468267-45.627733a66.0224 66.0224 0 0 1 16.810667-68.718933l177.885866-172.672c6.954667-6.929067 9.856-16.750933 8.695467-25.992534l-41.728-243.703466a66.235733 66.235733 0 0 1 26.658133-65.834667c12.168533-8.661333 25.4976-12.706133 39.406934-12.706133 11.008 0 21.435733 2.304 31.291733 7.509333l219.613867 115.498667a28.4928 28.4928 0 0 0 27.229866 0l219.613867-114.9184a66.500267 66.500267 0 0 1 71.278933 5.1968 66.235733 66.235733 0 0 1 26.6496 65.834666l-41.719466 243.712c-1.732267 9.233067 1.7408 19.0464 8.695466 25.975467L981.179733 444.586667a66.0224 66.0224 0 0 1 16.802134 68.718933z m-257.28-60.637867h-1.160534l-129.220266 18.4832a35.950933 35.950933 0 0 0-27.229867 19.6352l-53.888 109.141334c-4.061867 5.7856-5.2224 14.446933 0 22.528 1.732267 2.8928 4.6336 5.205333 7.5264 6.357333 3.4816 1.152 6.3744 1.732267 9.275733 1.732267 5.794133 0 10.427733-4.0448 12.7488-8.669867l42.299734-85.469867c2.901333-5.768533 6.3744-10.965333 10.427733-15.5904a46.830933 46.830933 0 0 1 29.550933-19.054933c3.4816-1.152 7.534933-2.304 11.008-2.304l95.035734-13.866667c3.473067-0.580267 6.3744-1.732267 8.695466-4.0448 2.901333-2.884267 5.205333-7.509333 5.205334-12.125866 0-9.813333-8.106667-17.322667-17.954134-17.322667-0.580267 0-1.7408 0-2.321066 0.571733z"  horiz-adv-x="1024" />

    
    <glyph glyph-name="icon_jifenleixing-bigin" unicode="&#59401;" d="M9.4208 733.525333c0-54.997333 72.917333-105.787733 191.2576-133.2736 118.314667-27.537067 264.106667-27.537067 382.429867 0 118.340267 27.485867 191.232 78.276267 191.232 133.2736C774.331733 818.517333 603.118933 887.466667 391.901867 887.466667 180.650667 887.466667 9.4208 818.551467 9.4208 733.525333zM532.667733 398.506667c54.852267 42.299733 114.432 76.356267 218.658134 79.965866 17.92 14.958933 23.722667 29.858133 25.053866 53.0176V671.146667c-5.333333-82.926933-174.139733-149.947733-382.464-149.947734-208.2816 0-384.426667 69.009067-384.426666 153.941334v-132.676267c0-85.614933 171.4688-154.589867 382.421333-154.589867 55.5264-0.213333 94.830933 1.7152 140.765867 10.632534zM9.4208 489.378133v-132.701866c0-84.9408 171.477333-153.941333 382.429867-153.941334h27.904c3.4304 46.6432 28.663467 95.7696 61.269333 135.7824-32.699733-3.524267-56.2688-5.717333-89.147733-5.717333-210.978133-0.0256-382.455467 68.974933-382.455467 156.586667z m382.011733-345.9072C179.541333 143.4624 8.533333 209.7152 8.533333 297.198933v-132.5312c0-84.846933 171.682133-153.770667 382.933334-153.770666h52.736c-21.905067 38.596267-28.603733 81.450667-28.603734 132.565333h-24.1664z m546.705067 187.648a263.765333 263.765333 0 0 1-373.0944 0c-103.048533-103.082667-103.048533-270.165333 0-373.248a263.765333 263.765333 0 0 1 373.128533-0.034133c103.031467 103.099733 103.031467 270.1824 0 373.282133h-0.034133zM811.537067 78.421333c-26.7776-26.7776-47.982933-54.7328-61.696-79.761066-13.713067 25.028267-34.944 53.0176-61.687467 79.761066-26.743467 26.769067-54.7328 47.9744-79.726933 61.713067 25.002667 13.713067 52.992 34.952533 79.726933 61.7216 26.7776 26.769067 47.9744 54.7328 61.696 79.752533 13.704533-25.019733 34.944-53.009067 61.687467-79.752533 26.769067-26.769067 54.724267-47.9744 79.752533-61.7216-25.002667-13.713067-53.009067-34.944-79.752533-61.713067z"  horiz-adv-x="1024" />

    
    <glyph glyph-name="icon_duijiecanshu-bigin" unicode="&#59402;" d="M771.003733 193.262933c-55.620267 0.0768-100.693333 45.141333-100.7616 100.7616 0 55.569067 45.192533 100.7616 100.7616 100.7616s100.829867-45.192533 100.829867-100.7616-45.2608-100.7616-100.829867-100.7616z m34.474667-134.075733a34.577067 34.577067 0 1 0-69.154133 0v70.997333a34.6112 34.6112 0 1 0 69.154133 0v-70.997333zM512 281.1904c-55.637333 0.034133-100.753067 45.115733-100.829867 100.7616 0 55.569067 45.192533 100.7616 100.7616 100.7616S612.693333 437.521067 612.693333 381.952 567.5008 281.1904 512 281.1904z m34.6112-222.0032a34.6112 34.6112 0 0 0-69.2224 0V218.5216a34.6112 34.6112 0 0 0 69.2224 0v-159.3344zM252.928 373.896533c-55.697067 0.034133-100.829867 45.201067-100.829867 100.898134 0 55.569067 45.192533 100.7616 100.7616 100.7616S353.621333 530.363733 353.621333 474.794667a100.693333 100.693333 0 0 0-100.7616-100.7616l0.068267-0.136534z m34.6112-315.733333a34.6112 34.6112 0 1 0-69.2224 0v255.317333a34.6112 34.6112 0 0 0 69.2224 0v-255.317333zM218.385067 708.949333a34.6112 34.6112 0 1 0 69.154133 0v-73.9328a34.6112 34.6112 0 0 0-69.154133 0V708.949333z m258.935466 1.024a34.6112 34.6112 0 1 0 69.2224 0v-166.0928a34.6112 34.6112 0 0 0-69.2224 0V709.973333z m259.140267 0a34.6112 34.6112 0 0 0 69.154133 0v-254.3616a34.6112 34.6112 0 0 0-69.154133 0V709.973333zM0 783.1552v-798.3104C0-77.4144 50.517333-128 112.8448-128h798.3104c62.2592 0 112.8448 50.517333 112.8448 112.8448V783.1552C1024 845.4144 973.482667 896 911.1552 896H112.8448C50.5856 896 0 845.482667 0 783.1552z"  horiz-adv-x="1024" />

    
    <glyph glyph-name="icon_chuanjianguize-bigin" unicode="&#59403;" d="M983.970133 319.581867c-72.072533 78.933333-181.845333 110.464-284.279466 81.672533-102.442667-28.791467-180.2752-113.066667-201.565867-218.24-21.2992-105.173333 17.544533-213.521067 100.573867-280.576-7.808-4.497067-15.701333-9.028267-23.7568-13.559467a129.664 129.664 0 0 0-125.175467-1.1008c-64.853333 34.935467-130.525867 78.5408-197.034667 130.7648a1117.568 1117.568 0 0 0-82.414933 71.5008c-86.528 83.054933-135.509333 198.314667-135.509333 318.856534V678.912c0.008533 59.511467 39.458133 111.658667 96.324266 127.3344L399.616 880.170667a431.863467 431.863467 0 0 0 229.333333 0l268.3904-73.915734c56.866133-15.675733 96.315733-67.822933 96.315734-127.3344v-267.246933c0-31.240533-3.268267-62.037333-9.6768-92.1344v0.042667z m-731.2384 59.093333h239.701334c18.056533 0 32.6912 14.7712 32.6912 32.9984 0 18.218667-14.634667 32.9984-32.682667 32.9984H252.731733c-18.056533 0-32.682667-14.779733-32.682666-32.9984 0-18.2272 14.626133-32.9984 32.682666-32.9984z m0 189.184h414.037334c18.056533 0 32.682667 14.779733 32.682666 33.006933s-14.626133 32.9984-32.682666 32.9984h-414.037334c-18.056533 0-32.682667-14.7712-32.682666-32.9984s14.626133-32.9984 32.682666-32.9984zM775.7312 345.685333c120.354133 0 217.915733-98.500267 217.915733-219.989333 0-121.514667-97.5616-219.997867-217.915733-219.997867s-217.915733 98.491733-217.915733 219.989334c0 121.4976 97.5616 219.989333 217.915733 219.989333z m-0.913067-376.4992a43.511467 43.511467 0 0 1 37.742934 21.998934 44.3648 44.3648 0 0 1 0 43.997866A43.511467 43.511467 0 0 1 774.826667 57.173333c-24.064 0-43.579733-19.703467-43.579734-43.997866 0-24.2944 19.5072-43.997867 43.579734-43.997867z m-39.227733 263.2448V116.394667c0-14.148267 7.4752-27.221333 19.6096-34.295467a38.912 38.912 0 0 1 39.227733 0 39.671467 39.671467 0 0 1 19.6096 34.304V232.413867c0 14.148267-7.4752 27.221333-19.6096 34.295466a38.912 38.912 0 0 1-39.227733 0 39.671467 39.671467 0 0 1-19.6096-34.304z"  horiz-adv-x="1024" />

    
    <glyph glyph-name="icon_duijieshijian-bigin" unicode="&#59404;" d="M1023.197867-48.298667V698.325333c0 77.243733-70.843733 69.870933-70.843734 69.870934s-423.133867-0.494933-400.989866 0c-24.1152-0.494933-36.411733 12.791467-36.411734 12.791466s-16.725333 29.0304-47.232 74.2912C436.224 902.997333 399.325867 895.121067 399.325867 895.121067H87.893333C1.288533 895.121067 0.3072 812.4672 0.3072 812.4672V-44.373333c0-91.997867 69.8624-80.682667 69.8624-80.682667h888.0896c75.272533 0 64.938667 76.757333 64.938667 76.757333zM259.106133 197.9392c-30.011733 0-54.1184 24.106667-54.1184 53.623467 0 30.011733 24.106667 53.632 54.1184 53.632 30.011733 0 54.1184-24.106667 54.1184-53.632 0-30.011733-24.106667-53.623467-54.1184-53.623467z m0 198.766933c-30.011733 0-54.1184 24.1152-54.1184 53.632 0 29.525333 24.106667 53.632 54.1184 53.632 30.011733 0 54.1184-24.1152 54.1184-53.632 0-29.525333-24.106667-53.632-54.1184-53.632z m531.370667-195.8144H447.547733c-28.049067 0-50.679467 22.6304-50.679466 50.176 0 27.562667 22.6304 50.193067 50.679466 50.193067h342.929067c28.049067 0 50.679467-22.638933 50.679467-50.184533 0-27.562667-23.125333-50.184533-50.679467-50.184534z m0 199.253334H447.547733c-28.049067 0-50.679467 22.638933-50.679466 50.193066 0 27.554133 22.6304 50.184533 50.679466 50.184534h342.929067c28.049067 0 50.679467-22.6304 50.679467-50.184534 0-28.049067-23.125333-50.184533-50.679467-50.184533z"  horiz-adv-x="1024" />

    
    <glyph glyph-name="icon_yewuxitong--bigin" unicode="&#59405;" d="M1024 431.445333c0 7.9104 0 15.8208-2.645333 23.722667-7.9104 21.085867-26.376533 39.543467-52.7616 39.543467h-79.1552c-5.282133 0-7.918933 2.6368-7.918934 5.2736-10.555733 23.722667-21.111467 47.445333-31.658666 73.8048-2.645333 2.6368-2.645333 5.2736 2.6368 7.901866 18.466133 18.4576 39.5776 36.906667 58.043733 55.355734 2.645333 7.9104 7.918933 13.184 10.555733 23.722666 7.918933 21.0944 2.645333 39.543467-13.192533 55.355734l-68.608 68.539733c-2.628267 2.6368-7.9104 7.901867-13.184 10.538667-21.111467 13.184-47.496533 7.9104-63.325867-10.538667-18.466133-18.4576-36.9408-36.906667-52.770133-57.992533-2.645333-5.2736-2.645333-5.2736-5.2736-7.9104v2.645333l-79.163733 31.624533c-5.2736 2.6368-5.2736 2.6368-5.2736 7.9104V842.6496c0 7.9104-2.645333 15.8208-7.918934 23.722667C599.1936 884.8384 580.727467 895.377067 559.616 895.377067H464.64c-7.918933 0-15.837867 0-23.7568-2.6368C419.780267 887.466667 398.677333 866.389333 401.3056 840.021333v-79.0784c0-5.2736-2.6368-7.9104-5.2736-7.9104-23.748267-10.5472-47.496533-21.085867-73.8816-31.633066-2.6368-2.6368-5.2736 0-7.9104 2.6368-18.474667 18.449067-36.949333 39.534933-55.415467 57.992533-23.739733 23.722667-52.770133 23.722667-76.509866 0a841.105067 841.105067 0 0 0-68.608-68.539733c-21.102933-23.722667-21.102933-55.355733 2.645333-79.0784 18.466133-18.449067 36.932267-36.898133 58.043733-52.718934l2.645334-2.628266c-2.645333-5.2736-5.290667-10.5472-7.918934-13.184-7.918933-21.085867-18.474667-42.171733-26.385066-63.266134-2.645333-5.265067-2.645333-5.265067-7.918934-5.265066H53.026133c-7.918933 0-15.837867-2.645333-23.748266-7.9104C10.8032 476.253867 0.256 457.8048 0.256 434.082133v-94.890666c0-7.9104 0-15.8208 2.6368-23.722667 5.2736-21.0944 26.385067-42.180267 52.770133-39.543467h79.1552c5.2736 0 7.918933-2.6368 7.918934-5.2736 10.5472-23.722667 21.102933-47.445333 31.658666-73.8048 2.645333-2.6368 0-5.2736-2.645333-7.9104l-55.406933-55.3472c-5.2736-5.2736-10.5472-13.184-15.829334-21.0944-7.9104-21.077333-2.6368-39.534933 13.192534-55.3472l68.608-68.539733c2.6368-2.6368 7.9104-7.9104 13.192533-10.538667 21.102933-13.184 47.488-7.9104 63.317333 10.538667 18.474667 21.085867 39.5776 39.543467 58.052267 60.629333 5.2736-2.645333 7.9104-5.2736 13.192533-7.9104 21.102933-7.9104 42.2144-18.449067 63.317334-26.359466 5.290667-2.6368 5.290667-2.6368 5.290666-7.9104v-81.706667c0-7.9104 2.628267-15.8208 7.9104-23.722667 13.192533-18.4576 31.658667-28.996267 52.770134-28.996266h94.984533c7.918933 0 15.829333 0 23.748267 2.6368 21.102933 7.901867 39.5776 26.350933 39.5776 52.7104v79.0784c0 5.2736 2.645333 7.9104 5.2736 7.9104 23.748267 10.5472 47.496533 21.085867 73.8816 31.633066 2.645333 2.6368 5.2736 2.6368 7.918933-2.6368 18.466133-18.449067 36.932267-39.534933 55.406933-57.992533 21.102933-21.077333 50.133333-23.722667 71.236267-2.6368 26.385067 23.722667 52.770133 50.090667 76.5184 76.4416 21.111467 21.0944 18.474667 52.718933-5.2736 71.168-18.474667 18.4576-36.949333 36.906667-58.052267 52.727467-2.6368 0-2.6368 2.6368-5.2736 2.6368l7.9104 15.812266c7.918933 21.085867 15.837867 42.171733 26.385067 60.629334 2.645333 5.265067 2.645333 5.265067 7.918933 5.265066h81.792c7.918933 0 15.837867 2.645333 23.748267 7.9104 18.474667 13.184 29.021867 31.633067 29.021867 55.355734 7.918933 36.906667 7.918933 68.5312 7.918933 100.164266zM512.128 130.952533c-139.844267 0-253.303467 113.339733-253.303467 250.410667 0 139.707733 113.4592 253.047467 253.303467 253.047467s253.294933-113.339733 253.294933-253.047467c0-137.070933-113.450667-250.410667-253.294933-250.410667zM512.128 539.52c-84.437333 0-155.6736-68.5312-155.6736-155.52s68.608-155.52 155.6736-155.52c84.4288 0 155.6736 68.5312 155.6736 155.52s-71.2448 155.52-155.6736 155.52z m0-274.133333c-65.962667 0-121.378133 52.718933-121.378133 121.250133 0 68.5312 52.778667 121.258667 121.378133 121.258667 65.962667 0 121.3696-52.727467 121.3696-121.258667s-55.406933-121.258667-121.3696-121.258667z"  horiz-adv-x="1024" />

    
    <glyph glyph-name="pen" unicode="&#59065;" d="M26.661438-127.996023a26.51191 26.51191 0 0 0-26.51191 29.322173l25.451434 234.948549a26.51191 26.51191 0 0 0 7.582406 15.907146L634.102327 752.835684a26.51191 26.51191 0 0 0 37.540865-37.487841L77.458258 121.268957l-20.944409-193.324849 196.188136 18.346241 593.866791 593.866791a26.51191 26.51191 0 0 0 37.540865-37.487841L283.508825-97.984541a26.51191 26.51191 0 0 0-16.278313-7.63543l-238.076954-22.270005a19.98998 19.98998 0 0 0-2.49212-0.106047zM865.49828 495.033869a26.51191 26.51191 0 0 0-18.770433 45.229319l115.061691 115.06169a42.843247 42.843247 0 0 1 0 60.606227l-114.531453 114.531453a42.843247 42.843247 0 0 1-60.553203 0l-115.06169-115.061691a26.51191 26.51191 0 1 0-37.540865 37.434817l115.06169 115.061691a96.026139 96.026139 0 0 0 135.634933 0l114.531453-114.531452a95.920091 95.920091 0 0 0 0-135.58191l-115.061691-115.06169a26.51191 26.51191 0 0 0-18.770432-7.688454zM865.49828 495.033869a26.51191 26.51191 0 0 0-18.770433 7.741478l-212.62552 212.62552a26.51191 26.51191 0 1 0 37.540865 37.434817l212.62552-212.62552a26.51191 26.51191 0 0 0-18.770432-45.229319z"  horiz-adv-x="1027" />

    
    <glyph glyph-name="icon_baobiao-r" unicode="&#59406;" d="M6.095238 896h1024v-1024H6.095238zM48.761905 469.333333h170.666666v-426.666666H48.761905zM816.761905 256h170.666666v-213.333333h-170.666666zM304.761905 810.666667h170.666666v-768H304.761905zM560.761905 597.333333h170.666666v-554.666666h-170.666666zM48.761905 0h938.666666v-85.333333H48.761905z"  horiz-adv-x="1170" />

    
    <glyph glyph-name="icon_guizguanli-r" unicode="&#59407;" d="M2.582027 878.427261L1008.967349 896l17.614678-1006.385321-1006.42726-17.614679zM549.895265 762.12844l256.545216 4.48755 5.74574-329.813893-127.454783 71.087811-129.048493-75.57536-5.78768 329.813892zM45.234714 837.200524L967.782552 853.389253l16.104849-922.547838L61.297624-85.305374 45.234714 837.284404z m135.33945-542.909567l670.909567 11.743119 1.46789-83.879423-670.909567-11.74312-1.46789 83.879424z m2.93578-167.758847l670.909567 11.743119 1.46789-83.879423-670.951507-11.70118-1.42595 83.879424z"  horiz-adv-x="1087" />

    
    <glyph glyph-name="icon_yunweiguanli-r" unicode="&#59408;" d="M27.136 36.096c-35.754667-35.797333-35.754667-97.194667 0-132.992 20.48-20.48 45.994667-30.72 71.552-30.72s51.114667 10.24 66.432 25.6l316.8 317.184-137.941333 133.034667-316.842667-312.106667zM814.08 619.349333l137.984 71.594667 71.552 138.154667L957.184 895.573333 819.2 823.893333l-71.552-138.112-168.618667-163.712 71.552-71.594666 163.498667 168.832zM844.757333 256.085333h-15.36c-25.514667 0-45.952-5.12-66.389333-10.24L374.613333 639.829333c5.12 20.48 10.24 40.96 10.24 66.56v15.317334C379.733333 818.858667 292.864 895.573333 195.797333 895.573333 165.12 895.573333 134.4 890.453333 114.005333 875.093333l127.744-127.914666c5.12-5.12 10.24-10.24 10.24-20.48 10.24-20.437333 5.12-51.114667-15.36-66.474667-10.197333-15.36-25.514667-20.48-40.832-20.48-10.24 0-15.36 0-25.6 5.12-5.077333 5.12-15.317333 5.12-20.394666 15.36L22.016 788.181333c-10.197333-25.6-20.437333-56.32-20.437333-81.877333 0-102.314667 76.672-184.192 178.858666-189.269333h15.36c25.514667 0 45.952 5.12 66.389334 10.24l393.472-393.941334c-5.12-20.48-10.24-40.96-10.24-66.56v-15.317333c5.12-102.314667 86.912-179.072 189.098666-179.072 30.677333 0 56.234667 5.12 81.792 20.48l-127.786666 127.914667c-5.12 5.12-10.24 15.36-15.317334 20.48-10.24 20.437333-5.12 51.114667 15.36 66.474666 10.197333 10.24 30.634667 20.48 45.952 20.48 5.12 0 15.36 0 20.48-5.12 10.197333-5.12 15.317333-5.12 20.394667-15.36l127.786667-127.914666c10.24 25.6 20.437333 51.2 20.437333 81.877333 0 102.314667-76.672 189.269333-178.858667 194.389333z"  horiz-adv-x="1024" />

    
    <glyph glyph-name="icon-jifen" unicode="&#58882;" d="M0 878.850108l982.209929 17.149892 17.149892-982.209929-982.209929-17.149892zM3.8884 623.034295c2.046527-119.025981 214.066672-211.815493 474.262052-207.272204 260.154449 4.502358 468.818291 104.659365 466.771764 223.685347C942.834759 758.473419 730.773683 851.262931 470.619234 846.719642 210.464785 842.217284 1.800943 742.019346 3.8884 623.034295zM479.787673 321.908386c-202.565193-3.520026-370.011991 51.285954-444.096251 129.176753-20.997362-29.265329-27.914621-50.876649-27.423455-79.691742 2.005596-114.810137 213.657367-211.815493 474.262051-207.272204 260.645615 4.584219 468.900152 101.589576 466.771765 223.726277-0.491166 28.774163-15.553601 50.017108-30.206731 78.668479-70.809817-80.428491-236.29195-141.046606-439.307379-144.607563zM484.290031 63.473019c-202.565193-3.520026-370.011991 51.245024-444.096251 129.176753C19.073627 170.792869 12.279159 141.732193 12.770325 112.95803c2.005596-114.810137 213.657367-211.815493 474.262052-207.272204 260.645615 4.543289 468.900152 101.548645 466.771764 223.685347-0.491166 28.815093-15.512671 50.058038-30.165801 78.709409-70.850747-81.042449-236.29195-141.046606-439.348309-144.607563z"  horiz-adv-x="1041" />

    
    <glyph glyph-name="jinyong" unicode="&#58884;" d="M512 832a448 448 0 1 1 448-448A448 448 0 0 1 512 832z m224-494.222H288v92.444h448z"  horiz-adv-x="1024" />

    
    <glyph glyph-name="qiyong1" unicode="&#58885;" d="M511.512 820.363c-240.725 0-435.876-195.15-435.876-435.875 0-240.732 195.15-435.88 435.876-435.88 240.73 0 435.879 195.15 435.879 435.88 0.002 240.725-195.15 435.875-435.88 435.875zM449.68 180.647l-0.142 0.139-0.688-0.69-209.77 209.775 73.967 73.96 135.94-135.94L709.98 588.88l73.965-73.967L449.681 180.65z"  horiz-adv-x="1024" />

    


  </font>
</defs>
</svg>
